<?xml version="1.0"?>
<svg width="780" height="1209" xmlns="http://www.w3.org/2000/svg" xmlns:svg="http://www.w3.org/2000/svg">
 <metadata id="metadata16">image/svg+xml</metadata>
 <defs>
  <clipPath clipPathUnits="userSpaceOnUse" id="clipPath26">
   <path d="m0,326.237l265.308,0l0,-326.237l-265.308,0l0,326.237z" id="path24"/>
  </clipPath>
 </defs>
 <g class="layer">
  <title>Layer 1</title>
  <g id="g18" transform="matrix(1.33333, 0, 0, -1.33333, 0, 434.983)">
   <g id="g163" transform="translate(3.6555, -193.191)">
    <g id="g52" transform="matrix(4.39685, 0, 0, 4.27935, 1089.67, -494.994)">
     <path d="m-189.345016,156.913132l7.272,-16.054l7.272,16.054l-7.272,7.272l-7.272,-7.272z" fill="#333333" fill-rule="nonzero" id="path54"/>
    </g>
    <g id="g56" transform="matrix(4.39685, 0, 0, 4.27935, 1164.14, -443.145)">
     <path d="m-189.345016,156.913132c7.645,-9.68 26.934,-4.021 23.269,6.516c3.209,0.324 6.89,0.567 12.889,0.117c-15.704,6.779 -31.951,0.116 -36.158,-6.633" fill="#333333" fill-rule="nonzero" id="path58"/>
    </g>
    <g id="g60" transform="matrix(4.39685, 0, 0, 4.27935, 920.178, -414.761)">
     <path d="m-189.345016,156.913132c5.999,0.451 9.68,0.207 12.889,-0.117c-3.665,-10.537 15.624,-16.196 23.269,-6.516c-4.207,6.749 -20.454,13.412 -36.158,6.633" fill="#333333" fill-rule="nonzero" id="path62"/>
    </g>
    <g id="g64" transform="matrix(4.39685, 0, 0, 4.27935, 1385.72, -335.18)">
     <path d="m-189.345016,156.913132l0,-38.1c-19.021,-8.484 -32.086,-29.695 -32.086,-54.529c0,-19.873 8.442,-37.419 21.422,-47.989c-10.357,10.715 -16.806,26.35 -16.806,43.774c0,22.751 11.107,41.149 27.47,50.043l0,-104.587c0,-5.497 -3.795,-11.383 -9.444,-11.383l-110.811,0l0,115.964c15.432,-8.897 27.324,-27.292 27.324,-50.037c0,-17.424 -6.594,-33.059 -16.952,-43.774c12.981,10.57 21.519,28.116 21.519,47.989c0,24.834 -12.888,46.045 -31.891,54.529l0,38.1l0,6.692c3.569,-5.084 8.505,-9.241 14.698,-11.873c6.982,-2.967 14.166,-2.607 21.435,-4.121c6.953,-1.448 13.605,-4.4 18.394,-9.771c-2.987,5.542 -8.253,9.353 -13.959,11.764c-6.438,2.72 -13.383,2.783 -19.874,5.19c-12.103,4.489 -19.209,15.096 -20.653,27.225c6.506,-4.424 14.705,-7.029 23.353,-7.029l73.62,0c8.536,0 16.568,2.603 23.069,7.159c-1.726,-12.183 -8.57,-22.85 -20.717,-27.355c-6.49,-2.407 -13.533,-2.47 -19.971,-5.19c-5.706,-2.411 -11.02,-6.222 -14.007,-11.764c4.789,5.371 11.416,8.323 18.37,9.771c7.269,1.514 14.635,1.154 21.617,4.121c6.197,2.634 11.18,6.794 14.88,11.884l0,-6.703zm-23.241,24.469l-73.62,0c-13.259,0 -25.835,7.294 -29.787,18.323l0,-33.654l0,-9.138l0,-169.163l117.204,0c9.173,0 15.836,8.601 15.836,17.775l0,151.388l0,9.138l0,33.654c-4.883,-11.029 -16.374,-18.323 -29.633,-18.323" fill="#333333" fill-rule="nonzero" id="path66"/>
    </g>
   </g>
  </g>
 </g>
</svg>